# xmcd
#
# Track frame offsets:
#	150
#	18584
#	38432
#	59476
#	76449
#	90407
#	108118
#	121027
#	143738
#	166181
#	187189
#	203251
#	219763
#	235488
#	255533
#	268974
#	284649
#	296199
#	318976
#
# Disc length: 4597 seconds
#
# Revision: 0
# Processed by: cddbd v1.5.2PL0 Copyright (c) Steve Scherf et al.
# Submitted via: EasyCDDAExtractor 11.1.0.1
#
DISCID=0d11f313
DTITLE=Reijo Mäki - Uhkapelimerkki CD04
DYEAR=1900
DGENRE=
TTITLE0=CD04.01
TTITLE1=CD04.02
TTITLE2=CD04.03
TTITLE3=CD04.04
TTITLE4=CD04.05
TTITLE5=CD04.06
TTITLE6=CD04.07
TTITLE7=CD04.08
TTITLE8=CD04.09
TTITLE9=CD04.10
TTITLE10=CD04.11
TTITLE11=CD04.12
TTITLE12=CD04.13
TTITLE13=CD04.14
TTITLE14=CD04.15
TTITLE15=CD04.16
TTITLE16=CD04.17
TTITLE17=CD04.18
TTITLE18=CD04.19
EXTD=
EXTT0=
EXTT1=
EXTT2=
EXTT3=
EXTT4=
EXTT5=
EXTT6=
EXTT7=
EXTT8=
EXTT9=
EXTT10=
EXTT11=
EXTT12=
EXTT13=
EXTT14=
EXTT15=
EXTT16=
EXTT17=
EXTT18=
PLAYORDER=
